{"title":"Nicki Minaj - Right Thru Me [KingPinVideos]","uid":5916058,"size":112842550,"categoryP":"video","categoryS":"music_videos","magnet":"?xt=urn:btih:2918d04f59e43e5f9408da1b9d79a8a137f62e18&amp;dn=Nicki+Minaj+-+Right+Thru+Me+%5BKingPinVideos%5D&amp;tr=udp%3A%2F%2Ftracker.openbittorrent.com%3A80&amp;tr=udp%3A%2F%2Fopen.demonii.com%3A1337&amp;tr=udp%3A%2F%2Ftracker.coppersurfer.tk%3A6969&amp;tr=udp%3A%2F%2Fexodus.desync.com%3A6969","seeders":2,"leechers":3,"uploader":"KingPinMan","files":5,"time":1288230342,"description":"\n[img]http://img153.imageshack.us/img153/6959/nickiminajrightthru.png[/img]\n\n[img]http://img176.imageshack.us/img176/9292/nickiminajrightthu2.png[/img]\n\n[code]General\nComplete name                    : Nicki Minaj - Right Thru Me [KingPinVideos].mpg\nFormat                           : MPEG-PS\nFile size                        : 108 MiB\nDuration                         : 5mn 16s\nOverall bit rate                 : 2 856 Kbps\nWriting library                  : encoded by TMPGEnc 4.0 XPress Version. 4.7.4.299\n\nVideo\nID                               : 224 (0xE0)\nFormat                           : MPEG Video\nFormat version                   : Version 1\nFormat settings, BVOP            : Yes\nFormat settings, Matrix          : Default\nDuration                         : 5mn 16s\nBit rate mode                    : Constant\nBit rate                         : 2 615 Kbps\nNominal bit rate                 : 2 700 Kbps\nWidth                            : 384 pixels\nHeight                           : 208 pixels\nDisplay aspect ratio             : 16:9\nFrame rate                       : 29.970 fps\nResolution                       : 8 bits\nScan type                        : Progressive\nBits/(Pixel*Frame)               : 1.092\nStream size                      : 98.5 MiB (92%)\nWriting library                  : TMPGEnc XPress 4.7.4.299\n\nAudio\nID                               : 192 (0xC0)\nFormat                           : MPEG Audio\nFormat version                   : Version 1\nFormat profile                   : Layer 2\nDuration                         : 5mn 16s\nBit rate mode                    : Constant\nBit rate                         : 128 Kbps\nChannel(s)                       : 2 channels\nSampling rate                    : 48.0 KHz\nStream size                      : 4.82 MiB (4%)[/code]","torrent":{"xt":"urn:btih:2918d04f59e43e5f9408da1b9d79a8a137f62e18","amp;dn":"Nicki+Minaj+-+Right+Thru+Me+%5BKingPinVideos%5D","amp;tr":["udp%3A%2F%2Ftracker.openbittorrent.com%3A80","udp%3A%2F%2Fopen.demonii.com%3A1337","udp%3A%2F%2Ftracker.coppersurfer.tk%3A6969","udp%3A%2F%2Fexodus.desync.com%3A6969"],"infoHash":"2918d04f59e43e5f9408da1b9d79a8a137f62e18","infoHashBuffer":{"type":"Buffer","data":[41,24,208,79,89,228,62,95,148,8,218,27,157,121,168,161,55,246,46,24]},"announce":[],"urlList":[]}}